<?xml version="1.0" encoding="utf-8"?>
<!-- Generator: Adobe Illustrator 21.0.2, SVG Export Plug-In . SVG Version: 6.00 Build 0)  -->
<svg version="1.1" id="Layer_1" xmlns="http://www.w3.org/2000/svg" xmlns:xlink="http://www.w3.org/1999/xlink" x="0px" y="0px"
	 viewBox="0 0 250.8 112.1" style="enable-background:new 0 0 250.8 112.1;" xml:space="preserve">
<style type="text/css">
	.st0{fill:#0000FF;}
</style>
<g>
	<path class="st0" d="M10.7,8.8L6.1,22.4c-0.4,1.2-0.6,2-0.6,2.6c0,0.6,0.1,1,0.3,1.1c0.2,0.2,0.4,0.3,0.7,0.4
		c0.3,0.1,0.6,0.1,0.9,0.2c0.4,0.1,0.7,0.2,1.1,0.4v1.2H0v-1.2c0.3-0.2,0.6-0.3,0.9-0.4c0.3-0.1,0.6-0.2,0.9-0.3
		c0.6-0.3,1-0.7,1.2-1.3L9.5,5.6L10.7,8.8z M14.6,19.5H8.6l0.5-1.8H14L14.6,19.5z M10.2,3.6C9.5,3.4,9,3.1,8.8,2.9
		c0-0.3,0.1-0.5,0.1-0.8C8.9,1.9,9,1.6,9,1.4c0-0.2,0.1-0.4,0.1-0.6C11.7,0.3,13.1,0,13.5,0c0.3,0.2,0.5,0.6,0.8,1.2l8.6,23.6
		c0.3,0.8,0.7,1.3,1.3,1.6c0.3,0.1,0.5,0.2,0.8,0.3c0.3,0.1,0.6,0.2,0.9,0.4v1.2H15.3v-1.2c0.3-0.1,0.6-0.2,0.9-0.3
		c0.3-0.1,0.6-0.1,0.9-0.2c0.6-0.1,0.9-0.4,0.9-0.9c0-0.4-0.3-1.4-0.9-3.2c-0.6-1.7-1.2-3.2-1.7-4.6c-1.3-3.8-2.7-7.5-3.9-11.3
		L10.2,3.6z"/>
	<path class="st0" d="M33.2,24.4c0,1.2,0.3,2,0.8,2.2c0.2,0.1,0.3,0.1,0.5,0.2c0.5,0.2,0.9,0.3,1.2,0.5v1h-9.1v-1
		c0.2-0.2,0.5-0.3,0.9-0.4c0.4-0.1,0.6-0.2,0.8-0.3c0.2-0.1,0.3-0.2,0.4-0.4c0.2-0.3,0.4-0.9,0.4-1.8V13.1c0-1.3-0.3-2-0.8-2.2
		c-0.2-0.1-0.3-0.1-0.5-0.2c-0.6-0.1-1-0.3-1.2-0.5V9.1h6.7V24.4z M37.8,10.7c-1.1,0-2.1,0.4-3,1.3V9.9c1.1-0.8,2.5-1.2,4-1.2
		c1.8,0,3.2,0.5,4.3,1.4c1.1,1,1.7,2.3,1.7,4.1v10.3c0,1.2,0.3,2,0.8,2.2c0.2,0.1,0.3,0.1,0.5,0.2c0.5,0.1,0.9,0.3,1.2,0.5v1h-7.5
		V27c0-0.2,0.1-0.5,0.3-0.7c0.2-0.2,0.4-0.4,0.5-0.5c0.1-0.1,0.2-0.4,0.2-0.7V14C40.7,11.8,39.7,10.7,37.8,10.7z"/>
	<path class="st0" d="M68.6,8.8L64,22.4c-0.4,1.2-0.6,2-0.6,2.6c0,0.6,0.1,1,0.3,1.1c0.2,0.2,0.4,0.3,0.7,0.4
		c0.3,0.1,0.6,0.1,0.9,0.2c0.4,0.1,0.7,0.2,1.1,0.4v1.2h-8.5v-1.2c0.3-0.2,0.6-0.3,0.9-0.4c0.3-0.1,0.6-0.2,0.9-0.3
		c0.6-0.3,1-0.7,1.2-1.3l6.6-19.6L68.6,8.8z M72.5,19.5h-5.9l0.5-1.8h4.9L72.5,19.5z M68.1,3.6c-0.7-0.2-1.2-0.5-1.4-0.7
		c0-0.3,0.1-0.5,0.1-0.8c0-0.2,0.1-0.5,0.1-0.7c0-0.2,0.1-0.4,0.1-0.6C69.6,0.3,71,0,71.4,0c0.3,0.2,0.5,0.6,0.8,1.2l8.6,23.6
		c0.3,0.8,0.7,1.3,1.3,1.6c0.3,0.1,0.5,0.2,0.8,0.3c0.3,0.1,0.6,0.2,0.9,0.4v1.2H73.2v-1.2c0.3-0.1,0.6-0.2,0.9-0.3s0.6-0.1,0.9-0.2
		c0.6-0.1,0.9-0.4,0.9-0.9c0-0.4-0.3-1.4-0.9-3.2c-0.6-1.7-1.2-3.2-1.7-4.6c-1.3-3.8-2.7-7.5-3.9-11.3L68.1,3.6z"/>
	<path class="st0" d="M90.8,0.5v24.7c0,0.6,0.3,1.1,0.8,1.3c0.2,0.1,0.5,0.2,0.8,0.3s0.6,0.2,0.9,0.4v1h-9.1v-1
		c0.3-0.2,0.6-0.3,0.8-0.4c0.3-0.1,0.6-0.2,0.8-0.3c0.5-0.3,0.8-0.7,0.8-1.3V3.7c0-0.6-0.3-1.1-0.8-1.4C85.6,2.2,85.3,2.1,85,2
		c-0.3-0.1-0.6-0.2-0.9-0.4V0.5H90.8z"/>
	<path class="st0" d="M101.8,28.8c-2.2-0.1-3.6-1.1-4-3c-0.1-0.6-0.2-1.3-0.2-2V11.1H95V9.9c0.2-0.2,0.4-0.3,0.6-0.4
		c0.2-0.1,0.5-0.2,0.7-0.3c0.6-0.3,1-0.6,1.2-1c0.3-0.4,0.5-0.9,0.7-1.3c0.2-0.5,0.3-0.9,0.4-1.4C98.8,4.9,98.9,4.5,99,4
		c0.1-0.5,0.3-0.9,0.4-1.3l2.4-0.1V28.8z M103.4,9.4h3.2v1.7h-3.2V9.4z M103.4,27c1,0,1.7-0.7,2.3-2.1c0.2-0.4,0.3-0.9,0.5-1.4
		l1.2,0.3c-0.4,2.3-1.2,3.8-2.4,4.5c-0.5,0.2-1,0.4-1.6,0.5V27z"/>
	<path class="st0" d="M113.9,17.5c0,5.6,1.2,8.7,3.7,9.4v1.8c-2.5-0.3-4.6-1.3-6.1-3.2c-1.5-1.8-2.2-4.1-2.2-6.8
		c0-2.9,0.7-5.2,2.2-7.1c1.5-1.9,3.5-2.9,6-3v1.6C115.1,10.6,113.9,13,113.9,17.5z M121.9,16.7c0-3.7-0.9-5.9-2.8-6.3V8.7
		c2.4,0.2,4.3,1.2,5.6,3.1c1.2,1.7,1.9,3.9,1.9,6.7h-11v-1.7H121.9z M119.2,27.1c2.3-0.1,3.9-1.2,4.8-3.2c0.3-0.6,0.5-1.2,0.7-1.8
		l1.7,0.6c-0.7,2.7-2.2,4.5-4.5,5.5c-0.8,0.3-1.7,0.5-2.7,0.6V27.1z"/>
	<path class="st0" d="M136.3,13.7v10.8c0,1.2,0.3,1.9,0.9,2.1c0.2,0.1,0.4,0.1,0.6,0.2c0.7,0.2,1.2,0.4,1.5,0.5v1h-9.4v-1
		c0.2-0.2,0.5-0.3,0.8-0.4c0.3-0.1,0.5-0.2,0.8-0.3c0.5-0.3,0.8-0.7,0.8-1.3V13.9c0-1.5-0.1-2.4-0.4-2.6c-0.2-0.2-0.5-0.4-0.7-0.5
		c-0.2-0.1-0.5-0.2-0.7-0.3c-0.2-0.1-0.5-0.2-0.6-0.3V9.1h6.3L136.3,13.7z M142.3,14.3c-0.6,0-1-0.1-1.3-0.4s-0.5-0.6-0.5-1
		s0.2-0.8,0.5-1.2c-0.1-0.1-0.3-0.1-0.4-0.1c-0.9,0-1.7,0.6-2.6,1.9v-3c1-1.2,2.1-1.8,3.3-1.8c1.4,0,2.3,0.6,2.8,1.8
		c0.2,0.4,0.2,0.9,0.2,1.5c0,0.6-0.2,1.2-0.6,1.6C143.3,14.1,142.8,14.3,142.3,14.3z"/>
	<path class="st0" d="M152.2,24.4c0,1.2,0.3,2,0.8,2.2c0.2,0.1,0.3,0.1,0.5,0.2c0.5,0.2,0.9,0.3,1.2,0.5v1h-9.1v-1
		c0.2-0.2,0.5-0.3,0.9-0.4c0.4-0.1,0.6-0.2,0.8-0.3c0.2-0.1,0.3-0.2,0.4-0.4c0.2-0.3,0.4-0.9,0.4-1.8V13.1c0-1.3-0.3-2-0.8-2.2
		c-0.2-0.1-0.3-0.1-0.5-0.2c-0.6-0.1-1-0.3-1.2-0.5V9.1h6.7V24.4z M156.8,10.7c-1.1,0-2.1,0.4-3,1.3V9.9c1.1-0.8,2.5-1.2,4-1.2
		c1.8,0,3.2,0.5,4.3,1.4c1.1,1,1.7,2.3,1.7,4.1v10.3c0,1.2,0.3,2,0.8,2.2c0.2,0.1,0.3,0.1,0.5,0.2c0.5,0.1,0.9,0.3,1.2,0.5v1h-7.5
		V27c0-0.2,0.1-0.5,0.3-0.7c0.2-0.2,0.4-0.4,0.5-0.5c0.1-0.1,0.2-0.4,0.2-0.7V14C159.8,11.8,158.8,10.7,156.8,10.7z"/>
	<path class="st0" d="M178.5,18.4c-3.5,1.3-5.2,3.1-5.2,5.5c0,1,0.2,1.8,0.7,2.3c0.5,0.6,1.2,0.9,2.1,0.9c0.9,0,1.7-0.3,2.4-1v1.9
		c-1,0.6-2.1,0.9-3.4,0.9c-1.3,0-2.3-0.1-3-0.4c-0.8-0.2-1.4-0.6-1.9-1c-1.1-0.9-1.6-2-1.6-3.5c0-3,2.6-5.2,7.9-6.7
		c0.7-0.2,1.4-0.4,2.1-0.6V18.4z M173.9,11.4c0.7,0.3,1.1,0.9,1.1,1.9c0,0.6-0.2,1.1-0.7,1.5c-0.4,0.4-1,0.6-1.8,0.6
		c-0.7,0-1.3-0.2-1.8-0.6c-0.4-0.4-0.7-0.9-0.7-1.6s0.1-1.2,0.4-1.7c0.3-0.5,0.7-1,1.3-1.3c1.1-0.8,2.6-1.3,4.3-1.4v1.5
		C175.1,10.3,174.3,10.7,173.9,11.4z M185.5,26.4c0.7,0,1.2-0.7,1.4-2l1,0.5c-0.1,1.3-0.5,2.2-1,2.9c-0.6,0.7-1.5,1-2.7,1
		c-1,0-1.7-0.2-2.1-0.5c-0.8-0.6-1.4-1.4-1.8-2.6V13.6c0-0.8-0.2-1.5-0.6-2.1c-0.4-0.6-1-1-1.8-1.2V8.7c4.4,0.2,6.6,2.6,6.6,7v9.2
		C184.3,25.9,184.7,26.4,185.5,26.4z"/>
	<path class="st0" d="M195.6,28.8c-2.2-0.1-3.6-1.1-4-3c-0.1-0.6-0.2-1.3-0.2-2V11.1h-2.6V9.9c0.2-0.2,0.4-0.3,0.6-0.4
		c0.2-0.1,0.5-0.2,0.7-0.3c0.6-0.3,1-0.6,1.2-1c0.3-0.4,0.5-0.9,0.7-1.3c0.2-0.5,0.3-0.9,0.4-1.4c0.1-0.5,0.2-0.9,0.4-1.4
		c0.1-0.5,0.3-0.9,0.4-1.3l2.4-0.1V28.8z M197.2,9.4h3.2v1.7h-3.2V9.4z M197.2,27c1,0,1.7-0.7,2.3-2.1c0.2-0.4,0.3-0.9,0.5-1.4
		l1.2,0.3c-0.4,2.3-1.2,3.8-2.4,4.5c-0.5,0.2-1,0.4-1.6,0.5V27z"/>
	<path class="st0" d="M210.2,9v16.3c0,0.6,0.3,1.1,0.8,1.3c0.2,0.1,0.5,0.2,0.8,0.3c0.3,0.1,0.6,0.2,0.8,0.4v1h-9.1v-1
		c0.3-0.2,0.6-0.3,0.8-0.4s0.6-0.2,0.8-0.3c0.5-0.3,0.8-0.7,0.8-1.3v-13c0-0.7-0.3-1.2-0.8-1.4c-0.2-0.1-0.5-0.2-0.8-0.3
		c-0.3-0.1-0.6-0.2-0.9-0.3V9.1L210.2,9z M205.3,2.9c0-0.7,0.2-1.4,0.7-1.8c0.5-0.5,1-0.7,1.6-0.7c0.6,0,1,0.1,1.3,0.2
		c0.3,0.1,0.6,0.3,0.8,0.5c0.5,0.5,0.7,1.1,0.7,1.8c0,0.7-0.2,1.3-0.7,1.8c-0.5,0.5-1.1,0.7-1.9,0.7c-0.8,0-1.4-0.2-1.9-0.7
		C205.5,4.2,205.3,3.6,205.3,2.9z"/>
	<path class="st0" d="M225.2,26.2l-1,2.5H222l-6.5-16.8c-0.2-0.5-0.5-0.8-1.1-1c-0.6-0.3-1.1-0.5-1.3-0.7v-1h9.1v1.2
		c-0.2,0.1-0.5,0.2-0.7,0.3c-0.3,0.1-0.5,0.1-0.8,0.2c-0.6,0.2-0.8,0.5-0.8,0.9c0,0.3,0.1,0.5,0.2,0.8c0.1,0.3,0.3,0.6,0.4,1.2
		c0.2,0.5,0.4,1.1,0.6,1.8c0.3,0.7,0.5,1.4,0.8,2.2c0.3,0.8,0.6,1.7,1,2.6c0.4,0.9,0.7,2,1.2,3.1L225.2,26.2z M224.8,21.7l2.6-7.1
		c0.5-1.5,0.8-2.4,0.8-2.8c0-0.3-0.1-0.6-0.3-0.7c-0.2-0.1-0.4-0.3-0.6-0.3c-0.3-0.1-0.5-0.1-0.8-0.2c-0.3,0-0.5-0.1-0.8-0.2V9.2
		h7.2v1.2c-0.2,0.1-0.3,0.2-0.6,0.3c-0.2,0.1-0.4,0.1-0.7,0.2c-0.7,0.3-1.1,0.8-1.4,1.6c0,0.1-0.1,0.3-0.1,0.4l-4.4,11.5L224.8,21.7
		z"/>
	<path class="st0" d="M238.1,17.5c0,5.6,1.2,8.7,3.7,9.4v1.8c-2.5-0.3-4.6-1.3-6.1-3.2c-1.5-1.8-2.2-4.1-2.2-6.8
		c0-2.9,0.7-5.2,2.2-7.1c1.5-1.9,3.5-2.9,6-3v1.6C239.3,10.6,238.1,13,238.1,17.5z M246.1,16.7c0-3.7-0.9-5.9-2.8-6.3V8.7
		c2.4,0.2,4.3,1.2,5.6,3.1c1.2,1.7,1.9,3.9,1.9,6.7h-11v-1.7H246.1z M243.4,27.1c2.3-0.1,3.9-1.2,4.8-3.2c0.3-0.6,0.5-1.2,0.7-1.8
		l1.7,0.6c-0.7,2.7-2.2,4.5-4.5,5.5c-0.8,0.3-1.7,0.5-2.7,0.6V27.1z"/>
	<path class="st0" d="M7.6,63.7c-0.4,0.7-0.5,1.4-0.5,2.1c0,0.1,0.2,0.1,0.6,0.1c0.4,0,0.9,0,1.5,0c0.6,0,1.3,0,2.1,0.1
		c0.8,0,1.6,0.1,2.4,0.2c0.8,0.1,1.6,0.3,2.4,0.5c0.8,0.2,1.5,0.5,2.1,0.9c1.3,0.8,2,2,2,3.5c0,1.7-0.7,3.1-2.2,4.2
		c-1.5,1.2-3.6,1.8-6,2v-1.3c1.6-0.1,2.8-0.5,3.8-1.3c0.9-0.7,1.3-1.6,1.3-2.6c0-1-0.5-1.8-1.5-2.4c-1-0.6-2.3-0.9-4-0.9
		c-1.7,0-3,0.1-4,0.2c-0.9,0.3-1.4,1-1.5,2.2c0,0.3-0.1,0.7-0.1,1.2c0,0.4,0.1,0.9,0.3,1.3c0.2,0.4,0.5,0.8,0.9,1.2
		c0.8,0.7,1.7,1.1,2.9,1.3v1.3c-2.2-0.1-4.1-0.7-5.4-1.8c-1.2-1-1.9-2.1-1.9-3.5c0-1.5,0.6-2.7,1.9-3.5c0.4-0.2,0.7-0.4,1-0.5v-0.1
		C5,67.6,4.5,67,4.1,66.1C4,65.8,4,65.5,4,65.2c0-0.3,0.1-0.6,0.2-0.8c0.1-0.2,0.2-0.4,0.4-0.6c0.3-0.3,0.7-0.6,1.2-1L7.6,63.7z
		 M7.4,56.7c0,2.9,0.8,4.6,2.4,4.9v1.3c-1.1-0.1-2.2-0.4-3.3-1.1c-2.2-1.3-3.4-3.1-3.4-5.4c0-1.7,0.6-3,1.9-4.2
		c1.2-1.1,2.8-1.8,4.8-2v1.3C8.2,52.1,7.4,53.7,7.4,56.7z M18.3,52.1c-0.6,0-1-0.1-1.3-0.4c-0.3-0.3-0.4-0.5-0.4-0.8
		s0.1-0.7,0.3-1.2c-0.8,0-1.3,0.7-1.4,1.8c0.9,0.7,1.6,1.4,1.9,1.9c0.5,0.9,0.7,1.8,0.7,2.8c0,1-0.2,1.9-0.5,2.6
		c-0.3,0.8-0.8,1.4-1.4,2c-1.2,1.2-2.9,1.8-4.9,2v-1.3c1.7-0.4,2.5-2,2.5-5c0-2.9-0.8-4.6-2.5-5v-1.3c0.9,0.1,1.9,0.2,2.7,0.5
		c0.4-1.8,1.5-2.7,3.4-2.7c0.7,0,1.3,0.1,1.6,0.4c0.6,0.5,0.9,1,0.9,1.6c0,0.5-0.1,1-0.4,1.4C19.3,51.9,18.9,52.1,18.3,52.1z"/>
	<path class="st0" d="M31.4,68.4c1.1,0,2-0.4,2.9-1.2v2.2c-1.2,0.7-2.6,1.1-4.3,1.1c-2.8,0-4.6-1-5.3-3c-0.2-0.7-0.4-1.5-0.4-2.5
		V53.9c0-0.7-0.3-1.2-0.8-1.4c-0.2-0.1-0.5-0.2-0.7-0.3c-0.3-0.1-0.5-0.2-0.8-0.3v-1.2h6.5v14.6C28.5,67.3,29.4,68.4,31.4,68.4z
		 M35.9,53.9c0-0.7-0.3-1.2-0.8-1.4c-0.2-0.1-0.5-0.2-0.8-0.3c-0.3-0.1-0.6-0.2-0.9-0.3v-1.2H40v16.1c0,0.7,0.3,1.1,0.8,1.4
		c0.2,0.1,0.5,0.2,0.8,0.3c0.3,0.1,0.5,0.2,0.8,0.4v1.2h-6.2l-0.3-2.1V53.9z"/>
	<path class="st0" d="M52.1,50.6v16.3c0,0.6,0.3,1.1,0.8,1.3c0.2,0.1,0.5,0.2,0.8,0.3c0.3,0.1,0.6,0.2,0.8,0.4v1h-9.1v-1
		c0.3-0.2,0.6-0.3,0.8-0.4c0.3-0.1,0.6-0.2,0.8-0.3c0.5-0.3,0.8-0.7,0.8-1.3v-13c0-0.7-0.3-1.2-0.8-1.4c-0.2-0.1-0.5-0.2-0.8-0.3
		c-0.3-0.1-0.6-0.2-0.9-0.3v-1.1L52.1,50.6z M47.2,44.5c0-0.7,0.2-1.4,0.7-1.8c0.5-0.5,1-0.7,1.6-0.7c0.6,0,1,0.1,1.3,0.2
		c0.3,0.1,0.6,0.3,0.8,0.5c0.5,0.5,0.7,1.1,0.7,1.8c0,0.7-0.2,1.3-0.7,1.8c-0.5,0.5-1.1,0.7-1.9,0.7c-0.8,0-1.4-0.2-1.9-0.7
		C47.4,45.9,47.2,45.2,47.2,44.5z"/>
	<path class="st0" d="M66.3,52.2c-2.8,0-4.2,2.8-4.2,8.3c0,5.5,1.3,8.3,3.9,8.3c0.8,0,1.6-0.5,2.4-1.4v2.3c-0.9,0.5-1.9,0.8-3,0.8
		c-1.2,0-2.2-0.2-3.2-0.7c-0.9-0.4-1.8-1.1-2.5-1.9c-1.5-1.9-2.3-4.3-2.3-7.3c0-3,0.8-5.5,2.3-7.4c1.5-1.9,3.5-2.9,5.8-2.9
		c1,0,2,0.2,2.9,0.7v1.9C67.9,52.4,67.2,52.2,66.3,52.2z M70.1,45.3c0-0.7-0.3-1.2-0.8-1.4c-0.2-0.1-0.5-0.2-0.8-0.3
		c-0.3-0.1-0.6-0.2-0.9-0.3v-1.2h6.6v24.3c0,1,0.5,1.7,1.6,2.1c0.3,0.1,0.5,0.2,0.7,0.3v1.2h-6.5V45.3z"/>
	<path class="st0" d="M83.4,59.1c0,5.6,1.2,8.7,3.7,9.4v1.8c-2.5-0.3-4.6-1.3-6.1-3.2c-1.5-1.8-2.2-4.1-2.2-6.8
		c0-2.9,0.7-5.2,2.2-7.1c1.5-1.9,3.5-2.9,6-3v1.6C84.6,52.2,83.4,54.6,83.4,59.1z M91.4,58.3c0-3.7-0.9-5.9-2.8-6.3v-1.7
		c2.4,0.2,4.3,1.2,5.6,3.1c1.2,1.7,1.9,3.9,1.9,6.7H85v-1.7H91.4z M88.7,68.7c2.3-0.1,3.9-1.2,4.8-3.2c0.3-0.6,0.5-1.2,0.7-1.8
		l1.7,0.6c-0.7,2.7-2.2,4.5-4.5,5.5c-0.8,0.3-1.7,0.5-2.7,0.6V68.7z"/>
	<path class="st0" d="M115.7,70.4c-2.2-0.1-3.6-1.1-4-3c-0.1-0.6-0.2-1.3-0.2-2V52.7h-2.6v-1.2c0.2-0.2,0.4-0.3,0.6-0.4
		c0.2-0.1,0.5-0.2,0.7-0.3c0.6-0.3,1-0.6,1.2-1s0.5-0.9,0.7-1.3c0.2-0.5,0.3-0.9,0.4-1.4c0.1-0.5,0.2-0.9,0.4-1.4
		c0.1-0.5,0.3-0.9,0.4-1.3l2.4-0.1V70.4z M117.3,51h3.2v1.7h-3.2V51z M117.3,68.7c1,0,1.7-0.7,2.3-2.1c0.2-0.4,0.3-0.9,0.5-1.4
		l1.2,0.3c-0.4,2.3-1.2,3.8-2.4,4.5c-0.5,0.2-1,0.4-1.6,0.5V68.7z"/>
	<path class="st0" d="M131.3,70.4c-2.2-0.2-4.1-1.2-5.5-2.8c-1.6-1.9-2.4-4.3-2.4-7.2c0-3,0.8-5.4,2.4-7.2c1.4-1.7,3.3-2.6,5.5-2.8
		v1.5c-1.1,0.2-2,1-2.5,2.2c-0.6,1.4-0.9,3.5-0.9,6.3c0,4.1,0.6,6.7,1.9,7.8c0.4,0.4,0.9,0.6,1.5,0.7V70.4z M132.9,68.9
		c2.3-0.4,3.5-3.2,3.5-8.5c0-4.2-0.7-6.8-2-7.9c-0.4-0.3-0.9-0.6-1.4-0.6v-1.5c2.2,0.2,4.1,1.1,5.5,2.8c1.6,1.9,2.5,4.3,2.5,7.3
		c0,3-0.8,5.4-2.4,7.3c-1.5,1.7-3.3,2.6-5.6,2.8V68.9z"/>
	<path class="st0" d="M1.4,83.5c0.6,0.2,1.1,0.3,1.4,0.3h5.4v1.6c-1.9,0-3.2,0.9-4,2.6c-0.4,0.8-0.7,1.7-0.9,2.6
		c-0.2,0.9-0.4,1.6-0.6,2.1H1.4L1.4,83.5L1.4,83.5z M14.7,83.8v23.2c0,1,0.1,1.7,0.3,2c0.2,0.3,0.4,0.5,0.6,0.6
		c0.2,0.1,0.4,0.2,0.6,0.2c0.7,0.2,1.2,0.4,1.5,0.6v1.2h-11v-1.2c0.3-0.2,0.7-0.3,1.1-0.5c0.5-0.1,0.8-0.2,1-0.3
		c0.2-0.1,0.4-0.2,0.5-0.4c0.3-0.4,0.4-1.1,0.4-2.2V83.8H14.7z M20.5,83.8c0.5,0,1.4-0.1,2.7-0.3v9.2h-1.3c-0.2-0.5-0.3-1-0.5-1.6
		c-0.1-0.6-0.3-1.1-0.5-1.6c-0.2-0.5-0.4-1.1-0.6-1.6c-0.2-0.5-0.5-0.9-0.9-1.3c-0.8-0.8-1.8-1.2-3.1-1.2v-1.6H20.5z"/>
	<path class="st0" d="M29.2,96.9v10.8c0,1.2,0.3,1.9,0.9,2.1c0.2,0.1,0.4,0.1,0.6,0.2c0.7,0.2,1.2,0.4,1.5,0.5v1h-9.4v-1
		c0.2-0.2,0.5-0.3,0.8-0.4c0.3-0.1,0.5-0.2,0.8-0.3c0.5-0.3,0.8-0.7,0.8-1.3V97.2c0-1.5-0.1-2.4-0.4-2.6c-0.2-0.2-0.5-0.4-0.7-0.5
		c-0.2-0.1-0.5-0.2-0.7-0.3c-0.2-0.1-0.5-0.2-0.6-0.3v-1.2H29L29.2,96.9z M35.2,97.5c-0.6,0-1-0.1-1.3-0.4s-0.5-0.6-0.5-1
		c0-0.4,0.2-0.8,0.5-1.2c-0.1-0.1-0.3-0.1-0.4-0.1c-0.9,0-1.7,0.6-2.6,1.9v-3c1-1.2,2.1-1.8,3.3-1.8c1.4,0,2.3,0.6,2.8,1.8
		c0.2,0.4,0.2,0.9,0.2,1.5c0,0.6-0.2,1.2-0.6,1.6C36.2,97.3,35.8,97.5,35.2,97.5z"/>
	<path class="st0" d="M46.6,112c-2.2-0.2-4.1-1.2-5.5-2.8c-1.6-1.9-2.4-4.3-2.4-7.2c0-3,0.8-5.4,2.4-7.2c1.4-1.7,3.3-2.6,5.5-2.8
		v1.5c-1.1,0.2-2,1-2.5,2.2c-0.6,1.4-0.9,3.5-0.9,6.3c0,4.1,0.6,6.7,1.9,7.8c0.4,0.4,0.9,0.6,1.5,0.7V112z M48.2,110.5
		c2.3-0.4,3.5-3.2,3.5-8.5c0-4.2-0.7-6.8-2-7.9c-0.4-0.3-0.9-0.6-1.4-0.6v-1.5c2.2,0.2,4.1,1.1,5.5,2.8c1.6,1.9,2.5,4.3,2.5,7.3
		c0,3-0.8,5.4-2.4,7.3c-1.5,1.7-3.3,2.6-5.6,2.8V110.5z"/>
	<path class="st0" d="M65.7,107.6c0,1.2,0.3,2,0.8,2.2c0.2,0.1,0.3,0.1,0.5,0.2c0.5,0.2,0.9,0.3,1.2,0.5v1h-9.1v-1
		c0.2-0.2,0.5-0.3,0.9-0.4c0.4-0.1,0.6-0.2,0.8-0.3c0.2-0.1,0.3-0.2,0.4-0.4c0.2-0.3,0.4-0.9,0.4-1.8V96.4c0-1.3-0.3-2-0.8-2.2
		c-0.2-0.1-0.3-0.1-0.5-0.2c-0.6-0.1-1-0.3-1.2-0.5v-1.2h6.7V107.6z M70.3,94c-1.1,0-2.1,0.4-3,1.3v-2.1c1.1-0.8,2.5-1.2,4-1.2
		c1.8,0,3.2,0.5,4.3,1.4c1.1,1,1.7,2.3,1.7,4.1v10.3c0,1.2,0.3,2,0.8,2.2c0.2,0.1,0.3,0.1,0.5,0.2c0.5,0.1,0.9,0.3,1.2,0.5v1h-7.5
		v-1.3c0-0.2,0.1-0.5,0.3-0.7c0.2-0.2,0.4-0.4,0.5-0.5c0.1-0.1,0.2-0.4,0.2-0.7V97.2C73.2,95,72.2,94,70.3,94z"/>
	<path class="st0" d="M91.2,93.8c-2.8,0-4.2,2.8-4.2,8.3c0,5.5,1.3,8.3,3.9,8.3c0.8,0,1.6-0.5,2.4-1.4v2.3c-0.9,0.5-1.9,0.8-3,0.8
		c-1.2,0-2.2-0.2-3.2-0.7c-0.9-0.4-1.8-1.1-2.5-1.9c-1.5-1.9-2.3-4.3-2.3-7.3c0-3,0.8-5.5,2.3-7.4c1.5-1.9,3.5-2.9,5.8-2.9
		c1,0,2,0.2,2.9,0.7v1.9C92.8,94,92,93.8,91.2,93.8z M95,86.9c0-0.7-0.3-1.2-0.8-1.4c-0.2-0.1-0.5-0.2-0.8-0.3
		c-0.3-0.1-0.6-0.2-0.9-0.3v-1.2h6.6V108c0,1,0.5,1.7,1.6,2.1c0.3,0.1,0.5,0.2,0.7,0.3v1.2H95V86.9z"/>
	<path class="st0" d="M110.2,108.4c0,0.6,0.3,1.1,0.8,1.3c0.2,0.1,0.5,0.2,0.8,0.3c0.3,0.1,0.6,0.2,0.8,0.4v1h-9.1v-1
		c0.3-0.2,0.6-0.3,0.9-0.4c0.3-0.1,0.6-0.2,0.8-0.3c0.5-0.3,0.8-0.7,0.8-1.3V86.9c0-0.7-0.3-1.2-0.8-1.4c-0.2-0.1-0.5-0.2-0.8-0.3
		c-0.3-0.1-0.6-0.2-0.9-0.3v-1.2h6.7V108.4z M114.8,94c-1.1,0-2,0.4-2.9,1.2V93c1.1-0.8,2.5-1.2,4-1.2c1.7,0,3.2,0.5,4.3,1.4
		c1.2,1,1.8,2.4,1.8,4.1v11.1c0,0.6,0.3,1,0.8,1.3c0.2,0.1,0.5,0.2,0.8,0.3c0.3,0.1,0.6,0.2,0.8,0.4v1h-7.5v-1.4
		c0-0.2,0.1-0.4,0.2-0.5c0.1-0.1,0.2-0.2,0.3-0.4c0.3-0.4,0.5-0.7,0.5-1.1V97.3C117.8,95.1,116.8,94,114.8,94z"/>
	<path class="st0" d="M131.4,100.7c0,5.6,1.2,8.7,3.7,9.4v1.8c-2.5-0.3-4.6-1.3-6.1-3.2c-1.5-1.8-2.2-4.1-2.2-6.8
		c0-2.9,0.7-5.2,2.2-7.1c1.5-1.9,3.5-2.9,6-3v1.6C132.6,93.8,131.4,96.2,131.4,100.7z M139.4,99.9c0-3.7-0.9-5.9-2.8-6.3v-1.7
		c2.4,0.2,4.3,1.2,5.6,3.1c1.2,1.7,1.9,3.9,1.9,6.7h-11v-1.7H139.4z M136.7,110.3c2.3-0.1,3.9-1.2,4.8-3.2c0.3-0.6,0.5-1.2,0.7-1.8
		l1.7,0.6c-0.7,2.7-2.2,4.5-4.5,5.5c-0.8,0.3-1.7,0.5-2.7,0.6V110.3z"/>
	<path class="st0" d="M154.4,92.2v16.3c0,0.6,0.3,1.1,0.8,1.3c0.2,0.1,0.5,0.2,0.8,0.3c0.3,0.1,0.6,0.2,0.8,0.4v1h-9.1v-1
		c0.3-0.2,0.6-0.3,0.8-0.4c0.3-0.1,0.6-0.2,0.8-0.3c0.5-0.3,0.8-0.7,0.8-1.3v-13c0-0.7-0.3-1.2-0.8-1.4c-0.2-0.1-0.5-0.2-0.8-0.3
		c-0.3-0.1-0.6-0.2-0.9-0.3v-1.1L154.4,92.2z M149.5,86.1c0-0.7,0.2-1.4,0.7-1.8c0.5-0.5,1-0.7,1.6-0.7c0.6,0,1,0.1,1.3,0.2
		c0.3,0.1,0.6,0.3,0.8,0.5c0.5,0.5,0.7,1.1,0.7,1.8c0,0.7-0.2,1.3-0.7,1.8c-0.5,0.5-1.1,0.7-1.9,0.7c-0.8,0-1.4-0.2-1.9-0.7
		C149.8,87.5,149.5,86.9,149.5,86.1z"/>
	<path class="st0" d="M166,108.4c0,0.6,0.3,1.1,0.8,1.3c0.2,0.1,0.5,0.2,0.8,0.3c0.3,0.1,0.6,0.2,0.9,0.4v1h-9.1v-1
		c0.3-0.2,0.6-0.3,0.8-0.4c0.3-0.1,0.6-0.2,0.8-0.3c0.5-0.3,0.8-0.7,0.8-1.3V96.4c0-1.3-0.3-2-0.8-2.2c-0.2-0.1-0.3-0.1-0.5-0.2
		c-0.6-0.1-1-0.3-1.2-0.5v-1.2h6.7V108.4z M167.6,93c1.1-0.8,2.4-1.2,3.8-1.2c2.3,0,4,0.8,5.1,2.4c0.3,0.5,0.5,1,0.7,1.5v12.7
		c0,0.6,0.3,1.1,0.8,1.4c0.2,0.1,0.5,0.2,0.8,0.3c0.3,0.1,0.5,0.2,0.8,0.4v1h-7.5v-1.3c0-0.2,0.1-0.5,0.3-0.7
		c0.2-0.2,0.4-0.4,0.5-0.5c0.1-0.1,0.2-0.4,0.2-0.7V97.1c0-2.1-0.9-3.1-2.7-3.1c-1.1,0-2,0.3-2.7,1V93z M181.5,94
		c-1,0-1.9,0.3-2.7,1V93c1.2-0.7,2.3-1.1,3.5-1.1c1.1,0,2.1,0.1,2.7,0.3c0.7,0.2,1.3,0.6,1.8,1c1.1,0.9,1.6,2.4,1.6,4.2v11
		c0,0.6,0.3,1.1,0.8,1.4c0.2,0.1,0.5,0.2,0.8,0.3c0.3,0.1,0.6,0.2,0.8,0.4v1h-7.5v-1.3c0-0.2,0.1-0.5,0.3-0.7
		c0.4-0.4,0.6-0.8,0.6-1.2V96.9C184.3,94.9,183.3,94,181.5,94z"/>
</g>
</svg>
